<svg version="1.1" viewBox="131.072 309.248 780.288 395.264" xmlns="http://www.w3.org/2000/svg" style="max-height: 500px" width="780.288" height="395.264"><path fill-rule="evenodd" fill="#0cad86" stroke="none" d="M 185.500 317.404 C 177.054 320.087, 170.360 324.397, 162.862 331.982 C 156.619 338.297, 154.290 341.608, 150.110 350.104 C 142.373 365.832, 141.487 370.177, 141.572 392 C 141.638 409.114, 141.845 411.159, 144.331 419.297 C 149.165 435.119, 156.603 447.433, 168.012 458.500 C 182.768 472.814, 183.250 475.492, 180.553 528.215 C 179.757 543.772, 178.608 567.075, 178 580 C 177.391 592.925, 176.017 617.449, 174.947 634.497 C 172.082 680.113, 172.245 682.792, 178.296 689.684 C 187.543 700.216, 205.649 699.435, 213.487 688.168 C 216.344 684.060, 216.517 683.241, 216.839 672.307 C 217.025 665.966, 216.455 649.465, 215.571 635.639 C 214.076 612.257, 211.710 567.737, 208.926 510.627 C 208.285 497.497, 208.042 484.709, 208.385 482.208 C 209.545 473.743, 213.462 467.236, 223.826 456.557 C 234.797 445.252, 239.781 437.724, 244.066 425.982 C 255.414 394.887, 250.276 357.484, 231.535 334.764 C 219.467 320.133, 200.010 312.796, 185.500 317.404 M 836.500 394.952 C 815.444 397.452, 798.451 411.071, 793.482 429.428 C 792.085 434.591, 791.830 438.420, 792.232 448.207 C 793.266 473.405, 800.747 484.474, 833 508.533 C 856.974 526.417, 862.608 532.800, 863.692 543.309 C 865.112 557.067, 857.195 565.949, 843.500 565.962 C 831.262 565.973, 825 558.997, 825 545.353 C 825 541.381, 824.561 536.976, 824.025 535.565 L 823.050 533 807.044 533 L 791.038 533 790.384 535.608 C 789.311 539.883, 790.982 559.764, 792.944 566.069 C 795.479 574.214, 798.902 579.671, 805.227 585.654 C 813.629 593.599, 822.418 597.302, 836.500 598.829 C 856.245 600.970, 872.520 595.573, 885.575 582.557 C 896.273 571.891, 900.814 558.584, 899.724 541.094 C 899.015 529.711, 896.032 520.710, 889.960 511.632 C 883.874 502.534, 878.048 497.122, 858 481.948 C 833.516 463.416, 827.519 456.050, 827.513 444.500 C 827.508 433.682, 832.832 427.860, 843.343 427.191 C 855.896 426.392, 861.536 432.177, 862.682 447.026 C 863.020 451.412, 863.853 455.463, 864.533 456.027 C 865.293 456.659, 871.682 456.947, 881.135 456.777 L 896.500 456.500 896.180 446 C 895.467 422.603, 888.630 409.070, 873.328 400.766 C 864.262 395.848, 849.106 393.455, 836.500 394.952 M 296 496.025 L 296 595.050 312.250 594.775 L 328.500 594.500 328.762 530.500 L 329.024 466.500 344.945 514.316 C 353.701 540.616, 361.401 562.778, 362.055 563.566 C 363.925 565.820, 379.196 565.568, 381.212 563.250 C 382.049 562.288, 385.013 554.750, 387.798 546.500 C 397.037 519.134, 412.996 470.057, 413.239 468.265 C 413.370 467.294, 413.708 495.300, 413.989 530.500 L 414.500 594.500 431.755 594.774 L 449.010 595.047 448.755 496.274 L 448.500 397.500 427.885 397.230 C 409.369 396.988, 407.061 397.140, 405.208 398.730 C 403.720 400.007, 399.659 411.928, 390.639 441.500 C 372.832 499.880, 372.713 500.246, 371.948 498.799 C 371.570 498.085, 364.630 475.900, 356.527 449.500 C 344.714 411.015, 341.308 401.054, 339.341 399.250 C 336.965 397.070, 336.252 397, 316.444 397 L 296 397 296 496.025 M 475.035 473.227 C 475.074 558.165, 475.187 559.923, 481.422 572.539 C 490.082 590.062, 509.619 600.030, 535.208 599.983 C 546.923 599.961, 556.446 597.960, 565.657 593.586 C 578.281 587.591, 585.933 578.682, 590.858 564.244 L 593.500 556.500 593.789 476.750 L 594.079 397 575.539 397 L 557 397 557 472.634 C 557 529.007, 556.691 549.299, 555.787 552.315 C 554.088 557.989, 548.517 563.517, 543 565.008 C 531.387 568.144, 519.094 563.890, 514.846 555.264 L 512.500 550.500 512 474 L 511.500 397.500 493.250 397.227 L 475 396.955 475.035 473.227 M 619 496.025 L 619 595.050 635.250 594.775 L 651.500 594.500 651.782 531 L 652.065 467.500 658.965 488.500 C 662.760 500.050, 669.608 520.975, 674.182 535 C 678.757 549.025, 683.031 561.400, 683.679 562.500 C 684.693 564.220, 686.094 564.540, 693.679 564.787 C 698.531 564.945, 703.156 564.635, 703.959 564.099 C 704.761 563.563, 712.490 542.059, 721.135 516.312 L 736.852 469.500 736.926 530.668 C 736.967 564.311, 737.273 592.548, 737.607 593.418 C 738.127 594.774, 740.625 595, 755.107 595 L 772 595 772 496 L 772 397 751.191 397 C 736.103 397, 729.922 397.344, 728.709 398.250 C 727.680 399.018, 723.220 412.031, 717.141 432 C 698.157 494.361, 696.694 499, 696.019 499 C 695.272 499, 693.681 494.021, 676.944 439.314 C 670.686 418.862, 664.993 401.344, 664.293 400.386 C 662.527 397.971, 655.531 397.159, 635.750 397.073 L 619 397 619 496.025"/></svg>