<svg xmlns="http://www.w3.org/2000/svg" version="1.1" xmlns:xlink="http://www.w3.org/1999/xlink" width="1000" height="1000"><g clip-path="url(#SvgjsClipPath1080)"><rect width="1000" height="1000" fill="#0cad86"></rect><g transform="matrix(2,0,0,2,0,0)"><svg xmlns="http://www.w3.org/2000/svg" version="1.1" xmlns:xlink="http://www.w3.org/1999/xlink" width="500" height="500"><svg xmlns="http://www.w3.org/2000/svg" version="1.1" xmlns:xlink="http://www.w3.org/1999/xlink" width="500" height="500"><svg xmlns="http://www.w3.org/2000/svg" viewBox="0 0 500 500" xmlns:bx="https://boxy-svg.com">
  <defs>
    <bx:export>
      <bx:file format="svg"></bx:file>
    </bx:export>
  <clipPath id="SvgjsClipPath1080"><rect width="1000" height="1000" x="0" y="0" rx="500" ry="500"></rect></clipPath></defs>
  <g transform="matrix(1, 0, 0, 1, -9.356914, 12.787195)">
    <ellipse style="fill: rgb(12, 173, 134);" cx="258.169" cy="237.241" rx="198.847" ry="198.847"></ellipse>
    <path fill-rule="evenodd" stroke="none" d="M 247.327 64.061 C 239.676 66.492 233.612 70.396 226.82 77.266 C 221.165 82.987 219.055 85.986 215.269 93.682 C 208.261 107.928 207.457 111.864 207.534 131.632 C 207.595 147.135 207.782 148.987 210.035 156.359 C 214.413 170.691 221.15 181.846 231.485 191.871 C 244.851 204.837 245.288 207.263 242.845 255.021 C 242.124 269.112 241.083 290.22 240.532 301.929 C 239.981 313.637 238.736 335.851 237.766 351.294 C 235.171 392.614 235.32 395.04 240.801 401.283 C 249.177 410.824 265.578 410.117 272.677 399.91 C 275.266 396.189 275.422 395.447 275.714 385.543 C 275.883 379.799 275.366 364.852 274.565 352.329 C 273.211 331.147 271.067 290.821 268.546 239.088 C 267.965 227.195 267.746 215.611 268.056 213.346 C 269.107 205.677 272.655 199.784 282.043 190.111 C 291.981 179.87 296.495 173.051 300.376 162.415 C 310.656 134.248 306.002 100.367 289.026 79.787 C 278.094 66.534 260.47 59.888 247.327 64.061" style="fill: rgb(255, 255, 255);"></path>
  </g>
</svg><style>@media (prefers-color-scheme: light) { :root { filter: none; } }
@media (prefers-color-scheme: dark) { :root { filter: none; } }
</style></svg></svg></g></g></svg>