<svg xmlns="http://www.w3.org/2000/svg" width="512" height="512" viewBox="0 0 512 512">
  <circle cx="256" cy="256" r="256" fill="#0cad86"/>
  <path fill="#ffffff" fill-rule="evenodd" d="M247.327 104.061C239.676 106.492 233.612 110.396 226.82 117.266C221.165 122.987 219.055 125.986 215.269 133.682C208.261 147.928 207.457 151.864 207.534 171.632C207.595 187.135 207.782 188.987 210.035 196.359C214.413 210.691 221.15 221.846 231.485 231.871C244.851 244.837 245.288 247.263 242.845 295.021C242.124 309.112 241.083 330.22 240.532 341.929C239.981 353.637 238.736 375.851 237.766 391.294C235.171 432.614 235.32 435.04 240.801 441.283C249.177 450.824 265.578 450.117 272.677 439.91C275.266 436.189 275.422 435.447 275.714 425.543C275.883 419.799 275.366 404.852 274.565 392.329C273.211 371.147 271.067 330.821 268.546 279.088C267.965 267.195 267.746 255.611 268.056 253.346C269.107 245.677 272.655 239.784 282.043 230.111C291.981 219.87 296.495 213.051 300.376 202.415C310.656 174.248 306.002 140.367 289.026 119.787C278.094 106.534 260.47 99.888 247.327 104.061"/>
</svg>